<svg xmlns="http://www.w3.org/2000/svg" xmlns:xlink="http://www.w3.org/1999/xlink" version="1.1" xml:space="preserve" viewBox="427.53 34.42 344.93 331.17">
<desc>Created with Fabric.js 3.6.3</desc>
<defs>
</defs>
<g transform="matrix(3.816720742507361 0 0 3.81672074250736 600 200)">
<linearGradient id="SVGID_23300" gradientUnits="userSpaceOnUse" gradientTransform="matrix(1 0 0 1 4.822000000000003 6.618000000000009)" x1="0" y1="0" x2="90.35581666110856" y2="86.76390678270143">
<stop offset="0%" style="stop-color:rgb(0,104,56);stop-opacity: 1"/>
<stop offset="100%" style="stop-color:rgb(150,207,36);stop-opacity: 1"/>
</linearGradient>
<path style="stroke: none; stroke-width: 0; stroke-dasharray: none; stroke-linecap: butt; stroke-dashoffset: 0; stroke-linejoin: miter; stroke-miterlimit: 4; fill: url(#SVGID_23300); fill-rule: nonzero; opacity: 1;" transform=" translate(-49.999908330554284, -49.99995339135072)" d="M 93.912 50.278 c -1.08 -0.487 -2.352 -0.005 -2.839 1.076 c -0.234 0.522 -0.239 1.089 -0.062 1.59 l -7.195 3.846 c -1.32 -2.753 -4.126 -4.659 -7.382 -4.659 c -1.017 0 -1.985 0.194 -2.884 0.532 l -9.549 -20.418 c 1.572 -1.058 2.606 -2.853 2.606 -4.89 c 0 -0.6 -0.091 -1.179 -0.258 -1.725 l 15.777 -4.875 c 0.447 0.827 1.312 1.395 2.318 1.395 c 1.459 0 2.644 -1.185 2.644 -2.646 s -1.185 -2.645 -2.644 -2.645 c -1.462 0 -2.646 1.184 -2.646 2.645 c 0 0.104 0.019 0.201 0.03 0.302 l -15.855 4.9 c -0.97 -1.919 -2.954 -3.239 -5.254 -3.239 c -0.308 0 -0.607 0.031 -0.902 0.076 l -1.277 -7.252 c 1.706 -0.415 2.978 -1.942 2.978 -3.776 c 0 -2.152 -1.746 -3.897 -3.898 -3.897 s -3.897 1.745 -3.897 3.897 c 0 2.129 1.709 3.853 3.829 3.891 l 1.298 7.371 c -2.333 0.782 -4.017 2.981 -4.017 5.578 c 0 1.161 0.341 2.241 0.921 3.153 l -15.124 11.74 c -1.857 -3.219 -5.327 -5.39 -9.31 -5.39 c -2.092 0 -4.038 0.607 -5.69 1.641 L 18.35 26.013 c 0.803 -0.688 1.322 -1.698 1.322 -2.838 c 0 -2.073 -1.682 -3.755 -3.755 -3.755 c -2.073 0 -3.755 1.682 -3.755 3.755 c 0 2.074 1.682 3.754 3.755 3.754 c 0.575 0 1.113 -0.14 1.6 -0.37 l 7.292 12.507 c -2.575 1.964 -4.243 5.056 -4.243 8.544 c 0 0.865 0.113 1.701 0.306 2.507 L 9.877 50.603 c -0.257 -1.143 -1.274 -1.998 -2.494 -1.998 c -1.415 0 -2.561 1.146 -2.561 2.561 c 0 1.413 1.146 2.56 2.561 2.56 c 1.266 0 2.31 -0.921 2.517 -2.128 L 21.156 51.1 c 1.169 3.404 3.993 6.028 7.517 6.921 l -1.9 12.826 c -0.175 -0.022 -0.348 -0.054 -0.53 -0.054 c -2.31 0 -4.182 1.872 -4.182 4.182 s 1.872 4.182 4.182 4.182 c 0.265 0 0.522 -0.031 0.773 -0.078 l 4.519 10.623 c -0.188 0.184 -0.348 0.4 -0.462 0.653 c -0.485 1.08 -0.004 2.351 1.077 2.837 c 1.08 0.487 2.353 0.005 2.837 -1.076 c 0.489 -1.08 0.005 -2.352 -1.075 -2.838 c -0.497 -0.224 -1.031 -0.234 -1.513 -0.084 l -4.433 -10.418 c 1.337 -0.607 2.283 -1.896 2.421 -3.426 l 11.116 -0.629 c 0.59 1.3 1.893 2.208 3.414 2.208 c 2.072 0 3.755 -1.681 3.755 -3.755 c 0 -2.072 -1.683 -3.754 -3.755 -3.754 c -2.073 0 -3.755 1.682 -3.755 3.754 c 0 0.194 0.029 0.381 0.057 0.567 l -10.857 0.615 c -0.225 -1.505 -1.24 -2.742 -2.62 -3.274 l 1.906 -12.862 c 0.546 0.085 1.101 0.143 1.67 0.143 c 5.938 0 10.751 -4.813 10.751 -10.752 c 0 -1.594 -0.356 -3.103 -0.979 -4.463 l 15.265 -11.848 c 1.078 1.191 2.631 1.945 4.363 1.945 c 0.859 0 1.673 -0.188 2.408 -0.519 l 9.512 20.341 c -2.613 1.369 -4.398 4.104 -4.398 7.257 c 0 2.372 1.015 4.503 2.626 5.999 l -4.665 5.323 c -0.521 -0.298 -1.111 -0.487 -1.754 -0.498 c -2.026 -0.035 -3.697 1.581 -3.73 3.605 c -0.033 2.027 1.581 3.697 3.606 3.731 c 2.026 0.034 3.698 -1.579 3.732 -3.606 c 0.018 -1.025 -0.39 -1.957 -1.057 -2.635 l 4.635 -5.289 c 1.35 0.979 3.004 1.562 4.799 1.562 c 0.938 0 1.835 -0.165 2.674 -0.456 l 5.733 11.404 c -0.869 0.568 -1.445 1.546 -1.445 2.661 c 0 1.759 1.425 3.184 3.184 3.184 s 3.182 -1.425 3.182 -3.184 c 0 -1.758 -1.423 -3.183 -3.182 -3.183 c -0.288 0 -0.562 0.051 -0.826 0.122 l -5.726 -11.388 c 2.72 -1.333 4.599 -4.121 4.599 -7.354 c 0 -0.913 -0.156 -1.788 -0.432 -2.608 l 7.36 -3.935 c 0.172 0.164 0.367 0.309 0.596 0.411 c 1.08 0.487 2.353 0.005 2.837 -1.075 C 95.477 52.036 94.992 50.765 93.912 50.278 z" stroke-linecap="round"/>
</g>
</svg>