<?xml version="1.0" encoding="UTF-8" standalone="no"?>
<!DOCTYPE svg PUBLIC "-//W3C//DTD SVG 1.1//EN" "http://www.w3.org/Graphics/SVG/1.1/DTD/svg11.dtd">
<svg xmlns="http://www.w3.org/2000/svg" xmlns:xlink="http://www.w3.org/1999/xlink" version="1.1" width="500" height="500" viewBox="0 0 500 500" xml:space="preserve">
<desc>Created with Fabric.js 3.6.3</desc>
<defs>
</defs>
<g transform="matrix(1 0 0 1 261.14000000000004 247.16692321576022)">
<g style="">
		<g transform="matrix(1.5162277876789783 0 0 1.516227787678978 -117.55000000000001 0)">
<linearGradient id="SVGID_10657" gradientUnits="userSpaceOnUse" gradientTransform="matrix(1 0 0 1 4.822000000000003 6.618000000000009)" x1="0" y1="0" x2="90.35581666110856" y2="86.76390678270143">
<stop offset="0%" style="stop-color:rgb(0,104,56);stop-opacity: 1"/>
<stop offset="100%" style="stop-color:rgb(150,207,36);stop-opacity: 1"/>
</linearGradient>
<path style="stroke: none; stroke-width: 0; stroke-dasharray: none; stroke-linecap: butt; stroke-dashoffset: 0; stroke-linejoin: miter; stroke-miterlimit: 4; fill: url(#SVGID_10657); fill-rule: nonzero; opacity: 1;" transform=" translate(-49.999908330554284, -49.99995339135072)" d="M 93.912 50.278 c -1.08 -0.487 -2.352 -0.005 -2.839 1.076 c -0.234 0.522 -0.239 1.089 -0.062 1.59 l -7.195 3.846 c -1.32 -2.753 -4.126 -4.659 -7.382 -4.659 c -1.017 0 -1.985 0.194 -2.884 0.532 l -9.549 -20.418 c 1.572 -1.058 2.606 -2.853 2.606 -4.89 c 0 -0.6 -0.091 -1.179 -0.258 -1.725 l 15.777 -4.875 c 0.447 0.827 1.312 1.395 2.318 1.395 c 1.459 0 2.644 -1.185 2.644 -2.646 s -1.185 -2.645 -2.644 -2.645 c -1.462 0 -2.646 1.184 -2.646 2.645 c 0 0.104 0.019 0.201 0.03 0.302 l -15.855 4.9 c -0.97 -1.919 -2.954 -3.239 -5.254 -3.239 c -0.308 0 -0.607 0.031 -0.902 0.076 l -1.277 -7.252 c 1.706 -0.415 2.978 -1.942 2.978 -3.776 c 0 -2.152 -1.746 -3.897 -3.898 -3.897 s -3.897 1.745 -3.897 3.897 c 0 2.129 1.709 3.853 3.829 3.891 l 1.298 7.371 c -2.333 0.782 -4.017 2.981 -4.017 5.578 c 0 1.161 0.341 2.241 0.921 3.153 l -15.124 11.74 c -1.857 -3.219 -5.327 -5.39 -9.31 -5.39 c -2.092 0 -4.038 0.607 -5.69 1.641 L 18.35 26.013 c 0.803 -0.688 1.322 -1.698 1.322 -2.838 c 0 -2.073 -1.682 -3.755 -3.755 -3.755 c -2.073 0 -3.755 1.682 -3.755 3.755 c 0 2.074 1.682 3.754 3.755 3.754 c 0.575 0 1.113 -0.14 1.6 -0.37 l 7.292 12.507 c -2.575 1.964 -4.243 5.056 -4.243 8.544 c 0 0.865 0.113 1.701 0.306 2.507 L 9.877 50.603 c -0.257 -1.143 -1.274 -1.998 -2.494 -1.998 c -1.415 0 -2.561 1.146 -2.561 2.561 c 0 1.413 1.146 2.56 2.561 2.56 c 1.266 0 2.31 -0.921 2.517 -2.128 L 21.156 51.1 c 1.169 3.404 3.993 6.028 7.517 6.921 l -1.9 12.826 c -0.175 -0.022 -0.348 -0.054 -0.53 -0.054 c -2.31 0 -4.182 1.872 -4.182 4.182 s 1.872 4.182 4.182 4.182 c 0.265 0 0.522 -0.031 0.773 -0.078 l 4.519 10.623 c -0.188 0.184 -0.348 0.4 -0.462 0.653 c -0.485 1.08 -0.004 2.351 1.077 2.837 c 1.08 0.487 2.353 0.005 2.837 -1.076 c 0.489 -1.08 0.005 -2.352 -1.075 -2.838 c -0.497 -0.224 -1.031 -0.234 -1.513 -0.084 l -4.433 -10.418 c 1.337 -0.607 2.283 -1.896 2.421 -3.426 l 11.116 -0.629 c 0.59 1.3 1.893 2.208 3.414 2.208 c 2.072 0 3.755 -1.681 3.755 -3.755 c 0 -2.072 -1.683 -3.754 -3.755 -3.754 c -2.073 0 -3.755 1.682 -3.755 3.754 c 0 0.194 0.029 0.381 0.057 0.567 l -10.857 0.615 c -0.225 -1.505 -1.24 -2.742 -2.62 -3.274 l 1.906 -12.862 c 0.546 0.085 1.101 0.143 1.67 0.143 c 5.938 0 10.751 -4.813 10.751 -10.752 c 0 -1.594 -0.356 -3.103 -0.979 -4.463 l 15.265 -11.848 c 1.078 1.191 2.631 1.945 4.363 1.945 c 0.859 0 1.673 -0.188 2.408 -0.519 l 9.512 20.341 c -2.613 1.369 -4.398 4.104 -4.398 7.257 c 0 2.372 1.015 4.503 2.626 5.999 l -4.665 5.323 c -0.521 -0.298 -1.111 -0.487 -1.754 -0.498 c -2.026 -0.035 -3.697 1.581 -3.73 3.605 c -0.033 2.027 1.581 3.697 3.606 3.731 c 2.026 0.034 3.698 -1.579 3.732 -3.606 c 0.018 -1.025 -0.39 -1.957 -1.057 -2.635 l 4.635 -5.289 c 1.35 0.979 3.004 1.562 4.799 1.562 c 0.938 0 1.835 -0.165 2.674 -0.456 l 5.733 11.404 c -0.869 0.568 -1.445 1.546 -1.445 2.661 c 0 1.759 1.425 3.184 3.184 3.184 s 3.182 -1.425 3.182 -3.184 c 0 -1.758 -1.423 -3.183 -3.182 -3.183 c -0.288 0 -0.562 0.051 -0.826 0.122 l -5.726 -11.388 c 2.72 -1.333 4.599 -4.121 4.599 -7.354 c 0 -0.913 -0.156 -1.788 -0.432 -2.608 l 7.36 -3.935 c 0.172 0.164 0.367 0.309 0.596 0.411 c 1.08 0.487 2.353 0.005 2.837 -1.075 C 95.477 52.036 94.992 50.765 93.912 50.278 z" stroke-linecap="round"/>
</g>
		<g transform="matrix(0.73 0 0 0.7299999999999999 7.900003543723415 2.90632301717174)">
<path style="stroke: none; stroke-width: 1; stroke-dasharray: none; stroke-linecap: butt; stroke-dashoffset: 0; stroke-linejoin: miter; stroke-miterlimit: 4; fill: rgb(246,248,235); fill-rule: nonzero; opacity: 1;" transform=" translate(-249.95000000000002, -250)" d="M 76.9 288.8 h 346.2 c 21.4 0 38.8 -17.4 38.8 -38.8 v 0 c 0 -21.4 -17.4 -38.8 -38.8 -38.8 H 76.9 C 55.4 211.2 38 228.6 38 250 v 0 C 38 271.4 55.4 288.8 76.9 288.8 z" stroke-linecap="round"/>
</g>
		<g transform="matrix(1 0 0 1 26.95999999999995 4.766076784239765)" style=""><path fill="#4DB721" opacity="1" d="M-144.58-7.86L-141.00-7.86L-141.00-6.98L-147.58 6.94L-151.56 6.94L-158.15-6.98L-158.15-7.86L-154.57-7.86L-149.57 3.41L-144.58-7.86Z"/><path fill="#4DB721" opacity="1" d="M-135.83-7.86L-131.85-7.86L-131.85 6.94L-135.83 6.94L-135.83-7.86Z"/><path fill="#4DB721" opacity="1" d="M-118.81 3.85L-118.81 3.85Q-117.62 3.85-116.94 3.73Q-116.27 3.61-115.93 3.42Q-115.58 3.23-115.50 3.00Q-115.41 2.77-115.41 2.57L-115.41 2.57Q-115.41 2.17-115.59 1.94Q-115.78 1.70-116.19 1.57Q-116.60 1.44-117.27 1.38Q-117.95 1.33-118.90 1.31L-118.90 1.31Q-119.45 1.28-120.20 1.24Q-120.95 1.20-121.75 1.05Q-122.54 0.91-123.32 0.63Q-124.09 0.36-124.70-0.14Q-125.31-0.64-125.68-1.39Q-126.06-2.14-126.06-3.22L-126.06-3.22L-126.06-3.51Q-126.06-4.46-125.72-5.33Q-125.37-6.21-124.54-6.87Q-123.72-7.53-122.31-7.92Q-120.91-8.31-118.81-8.31L-118.81-8.31L-118.01-8.31Q-116.49-8.31-115.05-8.12Q-113.62-7.93-112.25-7.58L-112.25-7.58L-112.25-3.93Q-113.86-4.31-115.44-4.53Q-117.02-4.75-118.66-4.75L-118.66-4.75Q-119.85-4.75-120.53-4.63Q-121.22-4.51-121.56-4.32Q-121.90-4.13-121.99-3.92Q-122.08-3.71-122.08-3.51L-122.08-3.51Q-122.08-3.11-121.89-2.87Q-121.71-2.63-121.29-2.49Q-120.87-2.36-120.20-2.31Q-119.54-2.25-118.61-2.23L-118.61-2.23Q-118.08-2.21-117.35-2.17Q-116.62-2.14-115.82-2.00Q-115.01-1.85-114.22-1.57Q-113.44-1.28-112.82-0.78Q-112.20-0.28-111.82 0.48Q-111.43 1.24-111.43 2.32L-111.43 2.32L-111.43 2.61Q-111.43 3.56-111.77 4.42Q-112.11 5.28-112.95 5.95Q-113.79 6.61-115.19 7.00Q-116.58 7.38-118.70 7.38L-118.70 7.38L-119.50 7.38Q-121.24 7.38-122.89 7.20Q-124.53 7.01-126.13 6.68L-126.13 6.68L-126.13 2.96Q-124.34 3.36-122.42 3.61Q-120.51 3.85-118.81 3.85Z"/><path fill="#4DB721" opacity="1" d="M-93.88-7.86L-89.90-7.86L-89.90 0.78Q-89.90 2.15-90.26 3.34Q-90.61 4.53-91.47 5.44Q-92.33 6.35-93.79 6.87Q-95.25 7.38-97.46 7.38L-97.46 7.38L-98.26 7.38Q-100.47 7.38-101.93 6.87Q-103.38 6.35-104.25 5.44Q-105.11 4.53-105.46 3.34Q-105.82 2.15-105.82 0.78L-105.82 0.78L-105.82-7.86L-101.84-7.86L-101.84 0.20Q-101.84 0.93-101.77 1.58Q-101.70 2.24-101.34 2.74Q-100.98 3.25-100.17 3.55Q-99.36 3.85-97.86 3.85L-97.86 3.85Q-96.38 3.85-95.56 3.55Q-94.74 3.25-94.38 2.74Q-94.01 2.24-93.95 1.58Q-93.88 0.93-93.88 0.20L-93.88 0.20L-93.88-7.86Z"/><path fill="#4DB721" opacity="1" d="M-81.97 6.94L-85.55 6.94L-85.55 6.06L-78.96-7.86L-74.99-7.86L-68.40 6.06L-68.40 6.94L-71.98 6.94L-73.26 4.07L-80.71 4.07L-81.97 6.94ZM-79.23 0.75L-74.72 0.75L-76.97-4.31L-79.23 0.75Z"/><path fill="#4DB721" opacity="1" d="M-49.06 6.94L-63.23 6.94L-63.23-7.86L-59.25-7.86L-59.25 3.41L-49.06 3.41L-49.06 6.94Z"/><path fill="#4DB721" opacity="1" d=""/><path fill="#4DB721" opacity="1" d="M-18.94-1.04L-18.94 0.11Q-18.94 1.62-19.34 2.94Q-19.74 4.27-20.73 5.25Q-21.72 6.24-23.39 6.81Q-25.06 7.38-27.60 7.38L-27.60 7.38L-28.40 7.38Q-30.10 7.38-31.76 7.27Q-33.42 7.16-34.98 6.94L-34.98 6.94L-34.98-7.84Q-33.42-8.09-31.76-8.20Q-30.10-8.31-28.40-8.31L-28.40-8.31L-27.60-8.31Q-25.06-8.31-23.39-7.73Q-21.72-7.16-20.73-6.17Q-19.74-5.19-19.34-3.86Q-18.94-2.54-18.94-1.04L-18.94-1.04ZM-28.29 3.89L-28.29 3.89Q-26.30 3.89-25.23 3.57Q-24.16 3.25-23.66 2.67Q-23.16 2.08-23.08 1.28Q-23.01 0.49-23.01-0.46L-23.01-0.46Q-23.01-1.41-23.08-2.21Q-23.16-3.00-23.66-3.58Q-24.16-4.15-25.23-4.47Q-26.30-4.79-28.29-4.79L-28.29-4.79Q-28.86-4.79-29.56-4.77Q-30.26-4.75-31.01-4.70L-31.01-4.70L-31.01 3.80Q-30.26 3.85-29.56 3.87Q-28.86 3.89-28.29 3.89Z"/><path fill="#4DB721" opacity="1" d="M-9.28 6.94L-9.28 1.44L-15.07-6.98L-15.07-7.86L-11.16-7.86L-7.29-1.72L-3.40-7.86L0.49-7.86L0.49-6.98L-5.30 1.44L-5.30 6.94L-9.28 6.94Z"/><path fill="#4DB721" opacity="1" d="M9.30-7.86L17.06 1.64L17.06-7.86L21.04-7.86L21.04 6.94L17.06 6.94L9.30-2.56L9.30 6.94L5.33 6.94L5.33-7.86L9.30-7.86Z"/><path fill="#4DB721" opacity="1" d="M29.79 6.94L26.21 6.94L26.21 6.06L32.80-7.86L36.77-7.86L43.36 6.06L43.36 6.94L39.78 6.94L38.50 4.07L31.05 4.07L29.79 6.94ZM32.53 0.75L37.04 0.75L34.79-4.31L32.53 0.75Z"/><path fill="#4DB721" opacity="1" d="M58.70 3.91L56.66 3.91L52.51-1.90L52.51 6.94L48.53 6.94L48.53-7.86L52.51-7.86L57.68-0.28L62.85-7.86L66.83-7.86L66.83 6.94L62.85 6.94L62.85-1.90L58.70 3.91Z"/><path fill="#4DB721" opacity="1" d="M73.15-7.86L77.13-7.86L77.13 6.94L73.15 6.94L73.15-7.86Z"/><path fill="#4DB721" opacity="1" d="M82.85 0.11L82.85-1.04Q82.85-2.54 83.23-3.86Q83.60-5.19 84.51-6.17Q85.42-7.16 86.96-7.73Q88.51-8.31 90.85-8.31L90.85-8.31L91.65-8.31Q93.15-8.31 94.57-8.12Q95.98-7.93 97.35-7.58L97.35-7.58L97.35-3.97Q96.58-4.20 95.79-4.35Q95.01-4.51 94.25-4.60Q93.48-4.70 92.79-4.75Q92.09-4.79 91.54-4.79L91.54-4.79Q89.81-4.79 88.87-4.47Q87.94-4.15 87.50-3.58Q87.07-3.00 87.00-2.21Q86.92-1.41 86.92-0.46L86.92-0.46Q86.92 0.49 87.00 1.28Q87.07 2.08 87.50 2.67Q87.94 3.25 88.87 3.57Q89.81 3.89 91.54 3.89L91.54 3.89Q92.09 3.89 92.79 3.85Q93.48 3.80 94.25 3.70Q95.01 3.61 95.79 3.44Q96.58 3.27 97.35 3.05L97.35 3.05L97.35 6.68Q95.98 7.01 94.57 7.20Q93.15 7.38 91.65 7.38L91.65 7.38L90.85 7.38Q88.51 7.38 86.96 6.81Q85.42 6.24 84.51 5.25Q83.60 4.27 83.23 2.94Q82.85 1.62 82.85 0.11L82.85 0.11Z"/><path fill="#4DB721" opacity="1" d="M110.06 3.85L110.06 3.85Q111.25 3.85 111.93 3.73Q112.60 3.61 112.94 3.42Q113.28 3.23 113.37 3.00Q113.46 2.77 113.46 2.57L113.46 2.57Q113.46 2.17 113.27 1.94Q113.09 1.70 112.68 1.57Q112.27 1.44 111.59 1.38Q110.92 1.33 109.97 1.31L109.97 1.31Q109.42 1.28 108.67 1.24Q107.91 1.20 107.12 1.05Q106.32 0.91 105.55 0.63Q104.78 0.36 104.17-0.14Q103.56-0.64 103.18-1.39Q102.81-2.14 102.81-3.22L102.81-3.22L102.81-3.51Q102.81-4.46 103.15-5.33Q103.49-6.21 104.32-6.87Q105.15-7.53 106.55-7.92Q107.96-8.31 110.06-8.31L110.06-8.31L110.85-8.31Q112.38-8.31 113.81-8.12Q115.25-7.93 116.62-7.58L116.62-7.58L116.62-3.93Q115.01-4.31 113.43-4.53Q111.85-4.75 110.21-4.75L110.21-4.75Q109.02-4.75 108.33-4.63Q107.65-4.51 107.31-4.32Q106.96-4.13 106.88-3.92Q106.79-3.71 106.79-3.51L106.79-3.51Q106.79-3.11 106.97-2.87Q107.16-2.63 107.58-2.49Q108.00-2.36 108.67-2.31Q109.33-2.25 110.26-2.23L110.26-2.23Q110.79-2.21 111.52-2.17Q112.25-2.14 113.05-2.00Q113.86-1.85 114.64-1.57Q115.43-1.28 116.05-0.78Q116.67-0.28 117.05 0.48Q117.44 1.24 117.44 2.32L117.44 2.32L117.44 2.61Q117.44 3.56 117.10 4.42Q116.75 5.28 115.91 5.95Q115.07 6.61 113.68 7.00Q112.29 7.38 110.17 7.38L110.17 7.38L109.37 7.38Q107.63 7.38 105.98 7.20Q104.33 7.01 102.74 6.68L102.74 6.68L102.74 2.96Q104.53 3.36 106.44 3.61Q108.36 3.85 110.06 3.85Z"/></g></g>
</g>
</svg>
